<svg xmlns="http://www.w3.org/2000/svg" width="1600" height="520" viewBox="0 0 1600 520" role="img" aria-labelledby="t d">
  <!-- Generated by scripts/banner.mjs. Edit that file, not this one. Direction D2 dark, depth variant. -->
  <title id="t">3PT. Takes direction. Plans. Builds. Learns. Rebuilds itself.</title>
  <desc id="d">Three Point Harness: Plan, Build, Instrument around a batteries core, drawn as a tetrahedron. A self-improving meta-harness for coding agents; every checkpoint in MongoDB Atlas; PWA, web and macOS inspectors over its state.</desc>
  <defs>
    <style>
      .sans{font-family:system-ui,-apple-system,"Segoe UI",Roboto,Helvetica,Arial,sans-serif}
      .mono{font-family:ui-monospace,SFMono-Regular,Menlo,Consolas,monospace;letter-spacing:.14em}
      .eyebrow{fill:#7B8694;font-size:15px;font-weight:500}
      .eyebrow2{fill:#A3ADBB;font-size:16px;font-weight:500}
      .h{fill:#E6E9EE;font-size:60px;font-weight:800;letter-spacing:-.015em}
      .h .a{fill:#FF6B4A}
      .sub{fill:#A3ADBB;font-size:21px;font-weight:400}
      .btn{font-size:19px;font-weight:600}
      .chip{font-size:14px;font-weight:600;letter-spacing:.12em}
      .chipxs{font-size:8px;font-weight:600;letter-spacing:.08em}
      .pane{font-size:9px;font-weight:600;letter-spacing:.14em}
      .foot{fill:#7B8694;font-size:12px;font-weight:500}
      .vtx{font-size:12px;font-weight:600;letter-spacing:.12em}
    </style>
    <radialGradient id="gPlan" cx="50%" cy="50%" r="50%"><stop offset="0" stop-color="#8B7CF6" stop-opacity=".34"/><stop offset="1" stop-color="#8B7CF6" stop-opacity="0"/></radialGradient>
    <radialGradient id="gBuild" cx="50%" cy="50%" r="50%"><stop offset="0" stop-color="#E0A33A" stop-opacity=".30"/><stop offset="1" stop-color="#E0A33A" stop-opacity="0"/></radialGradient>
    <radialGradient id="gInst" cx="50%" cy="50%" r="50%"><stop offset="0" stop-color="#3FB886" stop-opacity=".30"/><stop offset="1" stop-color="#3FB886" stop-opacity="0"/></radialGradient>
    <radialGradient id="gCore" cx="50%" cy="50%" r="50%"><stop offset="0" stop-color="#3AA6D9" stop-opacity=".38"/><stop offset="1" stop-color="#3AA6D9" stop-opacity="0"/></radialGradient>
    <radialGradient id="ground" cx="50%" cy="50%" r="50%"><stop offset="0" stop-color="#3AA6D9" stop-opacity=".22"/><stop offset=".5" stop-color="#E0A33A" stop-opacity=".08"/><stop offset="1" stop-color="#0F1216" stop-opacity="0"/></radialGradient>
    <linearGradient id="fade" x1="0" y1="0" x2="1" y2="0"><stop offset="0" stop-color="#0F1216" stop-opacity="1"/><stop offset=".55" stop-color="#0F1216" stop-opacity=".6"/><stop offset="1" stop-color="#0F1216" stop-opacity="0"/></linearGradient>
    <filter id="glow" x="-100%" y="-100%" width="300%" height="300%"><feGaussianBlur stdDeviation="9"/></filter>
    <filter id="soft" x="-50%" y="-50%" width="200%" height="200%"><feGaussianBlur stdDeviation="3"/></filter>
    <clipPath id="frame"><rect width="1600" height="520" rx="12"/></clipPath>
<radialGradient id="f-OAB" gradientUnits="userSpaceOnUse" cx="1396.9" cy="284.9" r="157.5">
      <stop offset="0" stop-color="#393f4a"/><stop offset=".72" stop-color="#515a68"/><stop offset="1" stop-color="#697486"/></radialGradient>
<radialGradient id="w-OAB-O" gradientUnits="userSpaceOnUse" cx="1341.3" cy="233.6" r="187.5">
      <stop offset="0" stop-color="#3AA6D9" stop-opacity="0.21"/><stop offset="1" stop-color="#3AA6D9" stop-opacity="0"/></radialGradient>
<radialGradient id="w-OAB-A" gradientUnits="userSpaceOnUse" cx="1427.5" cy="251.1" r="187.5">
      <stop offset="0" stop-color="#8B7CF6" stop-opacity="0.21"/><stop offset="1" stop-color="#8B7CF6" stop-opacity="0"/></radialGradient>
<radialGradient id="w-OAB-B" gradientUnits="userSpaceOnUse" cx="1421.8" cy="370" r="187.5">
      <stop offset="0" stop-color="#E0A33A" stop-opacity="0.21"/><stop offset="1" stop-color="#E0A33A" stop-opacity="0"/></radialGradient>
<radialGradient id="f-OBC" gradientUnits="userSpaceOnUse" cx="1321.3" cy="310.2" r="157.5">
      <stop offset="0" stop-color="#3d594c"/><stop offset=".72" stop-color="#56806a"/><stop offset="1" stop-color="#6fa787"/></radialGradient>
<radialGradient id="s-OBC" gradientUnits="userSpaceOnUse" cx="1329.3" cy="279.5" r="120"><stop offset="0" stop-color="#FFFFFF" stop-opacity=".22"/><stop offset="1" stop-color="#FFFFFF" stop-opacity="0"/></radialGradient>
<radialGradient id="w-OBC-O" gradientUnits="userSpaceOnUse" cx="1341.3" cy="233.6" r="187.5">
      <stop offset="0" stop-color="#3AA6D9" stop-opacity="0.29"/><stop offset="1" stop-color="#3AA6D9" stop-opacity="0"/></radialGradient>
<radialGradient id="w-OBC-B" gradientUnits="userSpaceOnUse" cx="1421.8" cy="370" r="187.5">
      <stop offset="0" stop-color="#E0A33A" stop-opacity="0.29"/><stop offset="1" stop-color="#E0A33A" stop-opacity="0"/></radialGradient>
<radialGradient id="w-OBC-C" gradientUnits="userSpaceOnUse" cx="1200.7" cy="326.9" r="187.5">
      <stop offset="0" stop-color="#3FB886" stop-opacity="0.29"/><stop offset="1" stop-color="#3FB886" stop-opacity="0"/></radialGradient>
  </defs>

  <g clip-path="url(#frame)">
    <rect width="1600" height="520" fill="#0F1216"/>

    <!-- the field: a glow at each point of the tetrahedron, the core brightest -->
    <ellipse cx="1341.3" cy="233.6" rx="360" ry="250" fill="url(#gCore)"/>
    <ellipse cx="1427.5" cy="251.1" rx="300" ry="220" fill="url(#gPlan)"/>
    <ellipse cx="1421.8" cy="370" rx="320" ry="220" fill="url(#gBuild)"/>
    <ellipse cx="1200.7" cy="326.9" rx="320" ry="220" fill="url(#gInst)"/>
    <polygon points="1180.1,331.3 1340.4,224.9 1438.7,244.9 1432.1,380.4" fill="none" stroke="#E6E9EE" stroke-opacity="0.110" stroke-width="1" stroke-linejoin="round"/>
    <polygon points="1159.5,335.7 1339.5,216.3 1449.8,238.7 1442.5,390.9" fill="none" stroke="#E6E9EE" stroke-opacity="0.090" stroke-width="1" stroke-linejoin="round"/>
    <polygon points="1138.9,340.2 1338.6,207.6 1461,232.5 1452.9,401.3" fill="none" stroke="#E6E9EE" stroke-opacity="0.070" stroke-width="1" stroke-linejoin="round"/>
    <polygon points="1118.3,344.6 1337.7,199 1472.1,226.3 1463.2,411.8" fill="none" stroke="#E6E9EE" stroke-opacity="0.050" stroke-width="1" stroke-linejoin="round"/>
    <polygon points="1097.7,349 1336.8,190.3 1483.3,220.1 1473.6,422.2" fill="none" stroke="#E6E9EE" stroke-opacity="0.030" stroke-width="1" stroke-linejoin="round"/>
    <ellipse cx="1350" cy="398" rx="285" ry="63" fill="url(#ground)" filter="url(#soft)"/>
    <rect width="1100" height="520" fill="url(#fade)"/>

    <!-- eyebrows, headline, subline -->
    <text class="mono eyebrow"  x="64" y="72">3PT · THREE POINT HARNESS</text>
    <text class="mono eyebrow2" x="64" y="104">AN ACCESSIBLE AGENT HARNESS FOR MEDIA-HEAVY WORKFLOWS</text>
    <text class="sans h" x="60" y="178">Takes direction. Plans. Builds.</text>
    <text class="sans h" x="60" y="246"><tspan class="a">Learns. Rebuilds itself.</tspan></text>
    <text class="sans sub" x="64" y="296">For teams whose work is photos and plans, not code. It learns from what it built</text>
    <text class="sans sub" x="64" y="326">and from the media it works on; every run, rule and checkpoint lives in MongoDB</text>
    <text class="sans sub" x="64" y="356">Atlas, so each version re-runs over the same corpus and is graded against the last.</text>

    <!-- controls and stage chips -->
    <g transform="translate(64,392)">
      <rect x="0" y="0" width="172" height="52" rx="10" fill="#FF6B4A"/>
      <text class="sans btn" x="86" y="33" text-anchor="middle" fill="#14100E">Approve v3</text>
      <rect x="188" y="0" width="150" height="52" rx="10" fill="#151A21" stroke="#5E6C85" stroke-width="1.5"/>
      <text class="sans btn" x="263" y="33" text-anchor="middle" fill="#E6E9EE">Roll back</text>
      <rect x="364" y="10" width="86" height="32" rx="99" fill="#151A21" stroke="#8B7CF6" stroke-width="1.5"/>
      <text class="mono chip" x="407" y="31" text-anchor="middle" fill="#8B7CF6">PLAN</text>
      <rect x="462" y="10" width="96" height="32" rx="99" fill="#151A21" stroke="#E0A33A" stroke-width="1.5"/>
      <text class="mono chip" x="510" y="31" text-anchor="middle" fill="#E0A33A">BUILD</text>
      <rect x="570" y="10" width="160" height="32" rx="99" fill="#151A21" stroke="#3FB886" stroke-width="1.5"/>
      <text class="mono chip" x="650" y="31" text-anchor="middle" fill="#3FB886">INSTRUMENT</text>
    </g>

    <!-- the surfaces -->
    <g>
      <rect x="1010" y="96" width="176" height="102" rx="9" fill="#1A2029" fill-opacity=".9" stroke="#5E6C85" stroke-opacity=".7"/>
      <path d="M1010 120h176" stroke="#2A323D"/>
      <circle cx="1023" cy="108" r="3.4" fill="#FF5F57"/><circle cx="1034" cy="108" r="3.4" fill="#FEBC2E"/><circle cx="1045" cy="108" r="3.4" fill="#28C840"/>
      <text class="mono pane" x="1106" y="112" text-anchor="middle" fill="#A3ADBB">3PT.app</text>
      <rect x="1010" y="120" width="42" height="78" fill="#151A21" fill-opacity=".8"/><path d="M1052 120v78" stroke="#2A323D"/>
      <rect x="1019" y="132" width="24" height="5" rx="2.5" fill="#E6E9EE" fill-opacity="0.28"/><rect x="1019" y="144" width="18" height="5" rx="2.5" fill="#E6E9EE" fill-opacity="0.28"/><rect x="1019" y="156" width="22" height="5" rx="2.5" fill="#E6E9EE" fill-opacity="0.28"/><rect x="1019" y="168" width="16" height="5" rx="2.5" fill="#E6E9EE" fill-opacity="0.28"/>
      <rect x="1062" y="132" width="70" height="5" rx="2.5" fill="#E6E9EE" fill-opacity="0.2"/><rect x="1062" y="144" width="52" height="5" rx="2.5" fill="#E6E9EE" fill-opacity="0.2"/><rect x="1062" y="156" width="64" height="5" rx="2.5" fill="#E6E9EE" fill-opacity="0.2"/>
      <rect x="1062" y="178" width="50" height="12" rx="6" fill="none" stroke="#3FB886" stroke-opacity=".9"/><text class="mono chipxs" x="1087" y="187" text-anchor="middle" fill="#3FB886">DERIVED</text>
      <text class="mono pane" x="1176" y="188" text-anchor="end" fill="#3AA6D9">MACOS</text>
    </g>
    <g>
      <rect x="1440" y="62" width="146" height="96" rx="8" fill="#1A2029" fill-opacity=".9" stroke="#5E6C85" stroke-opacity=".7"/>
      <path d="M1440 92h146" stroke="#2A323D"/>
      <rect x="1448" y="68" width="46" height="18" rx="5" fill="#151A21"/><rect x="1498" y="68" width="30" height="18" rx="5" fill="#151A21" fill-opacity=".5"/>
      <rect x="1448" y="144" width="0" height="0"/>
      <rect x="1450" y="100" width="126" height="14" rx="7" fill="#151A21" stroke="#2A323D"/><text class="mono chipxs" x="1458" y="110" fill="#7B8694">3pt.pages.dev/app</text>
      <rect x="1450" y="124" width="76" height="5" rx="2.5" fill="#E6E9EE" fill-opacity="0.2"/><rect x="1450" y="136" width="58" height="5" rx="2.5" fill="#E6E9EE" fill-opacity="0.2"/>
      <rect x="1450" y="138" width="50" height="12" rx="6" fill="none" stroke="#3FB886" stroke-opacity=".9"/><text class="mono chipxs" x="1475" y="147" text-anchor="middle" fill="#3FB886">DERIVED</text>
      <text class="mono pane" x="1576" y="148" text-anchor="end" fill="#8B7CF6">WEB</text>
    </g>
    <text class="mono foot" x="1010" y="490" text-anchor="start">SURFACES · MACOS · WEB · PWA</text>

    <!-- the mark: the tetrahedron, the loop around its base, the backfeed arrows -->
    <path d="M1446.1 235.5L1459.6 238.5L1472.1 242.1L1483.8 246.2L1494.5 250.9L1504 256.1L1512.4 261.7L1519.5 267.8L1525.4 274.2L1529.9 280.9L1533 287.9L1534.8 295.1L1535.1 302.5L1534.1 309.9L1531.6 317.5L1527.8 325L1522.6 332.4L1516.1 339.7L1508.3 346.8L1499.3 353.7L1489.2 360.4L1478 366.6L1465.9 372.5L1452.8 378L1439 383L1424.5 387.4L1409.5 391.4L1394 394.7L1378.1 397.5L1362.1 399.6L1345.9 401.1L1329.8 402L1313.8 402.2L1298.1 401.7L1282.8 400.6L1268 398.9L1253.9 396.5L1240.4 393.5L1227.9 389.9L1216.2 385.8L1205.5 381.1L1196 375.9L1187.6 370.3L1180.5 364.2L1174.6 357.8L1170.1 351.1L1167 344.1L1165.2 336.9L1164.9 329.5L1165.9 322.1L1168.4 314.5L1172.2 307L1177.4 299.6L1183.9 292.3L1191.7 285.2L1200.7 278.3L1210.8 271.6L1222 265.4L1234.1 259.5L1247.2 254L1261 249L1275.5 244.6L1290.5 240.6L1306 237.3L1321.9 234.5L1337.9 232.4L1354.1 230.9L1370.2 230L1386.2 229.8L1401.9 230.3L1417.2 231.4L1432 233.1L1446.1 235.5" fill="none" stroke="#FF6B4A" stroke-opacity=".55" stroke-width="1.6" stroke-dasharray="5 6"/>
    <path d="M0 0 L-15 -7.5 L-11 0 L-15 7.5 Z" fill="#FF6B4A" transform="translate(1534.6 307.6) rotate(96.4)"/>
    <path d="M0 0 L-15 -7.5 L-11 0 L-15 7.5 Z" fill="#FF6B4A" transform="translate(1244.6 394.5) rotate(-167.9)"/>
    <path d="M0 0 L-15 -7.5 L-11 0 L-15 7.5 Z" fill="#FF6B4A" transform="translate(1270.9 245.9) rotate(-17.6)"/>
    <polygon points="1341.3,233.6 1200.7,326.9 1427.5,251.1" fill="#569ec7" fill-opacity=".10"/>
    <polygon points="1427.5,251.1 1200.7,326.9 1421.8,370" fill="#8e9d95" fill-opacity=".10"/>
    <polygon points="1341.3,233.6 1427.5,251.1 1421.8,370" fill="url(#f-OAB)" fill-opacity=".58"/>
    <polygon points="1341.3,233.6 1427.5,251.1 1421.8,370" fill="url(#w-OAB-O)"/>
    <polygon points="1341.3,233.6 1427.5,251.1 1421.8,370" fill="url(#w-OAB-A)"/>
    <polygon points="1341.3,233.6 1427.5,251.1 1421.8,370" fill="url(#w-OAB-B)"/>
    <polygon points="1341.3,233.6 1421.8,370 1200.7,326.9" fill="url(#f-OBC)" fill-opacity=".58"/>
    <polygon points="1341.3,233.6 1421.8,370 1200.7,326.9" fill="url(#s-OBC)"/>
    <polygon points="1341.3,233.6 1421.8,370 1200.7,326.9" fill="url(#w-OBC-O)"/>
    <polygon points="1341.3,233.6 1421.8,370 1200.7,326.9" fill="url(#w-OBC-B)"/>
    <polygon points="1341.3,233.6 1421.8,370 1200.7,326.9" fill="url(#w-OBC-C)"/>
    <line x1="1341.3" y1="233.6" x2="1427.5" y2="251.1" stroke="#E6E9EE" stroke-opacity=".55" stroke-width="1.4"/>
    <line x1="1341.3" y1="233.6" x2="1421.8" y2="370" stroke="#E6E9EE" stroke-opacity=".55" stroke-width="1.4"/>
    <line x1="1341.3" y1="233.6" x2="1200.7" y2="326.9" stroke="#E6E9EE" stroke-opacity=".55" stroke-width="1.4"/>
    <line x1="1427.5" y1="251.1" x2="1421.8" y2="370" stroke="#E6E9EE" stroke-opacity=".55" stroke-width="1.4"/>
    <line x1="1421.8" y1="370" x2="1200.7" y2="326.9" stroke="#E6E9EE" stroke-opacity=".55" stroke-width="1.4"/>
    <line x1="1200.7" y1="326.9" x2="1427.5" y2="251.1" stroke="#E6E9EE" stroke-opacity=".30" stroke-width="1.1" stroke-dasharray="3 5"/>
    <polygon points="1200.7,326.9 1341.3,233.6 1427.5,251.1 1421.8,370" fill="none" stroke="#E6E9EE" stroke-opacity=".28" stroke-width="2.2" filter="url(#soft)"/>
    <circle cx="1427.5" cy="251.1" r="22" fill="#8B7CF6" fill-opacity=".22" filter="url(#glow)"/>
    <circle cx="1427.5" cy="251.1" r="8.5" fill="#8B7CF6"/>
    <circle cx="1427.5" cy="251.1" r="3" fill="#FFFFFF" fill-opacity=".8"/>
    <circle cx="1421.8" cy="370" r="22" fill="#E0A33A" fill-opacity=".22" filter="url(#glow)"/>
    <circle cx="1421.8" cy="370" r="8.5" fill="#E0A33A"/>
    <circle cx="1421.8" cy="370" r="3" fill="#FFFFFF" fill-opacity=".8"/>
    <circle cx="1200.7" cy="326.9" r="22" fill="#3FB886" fill-opacity=".22" filter="url(#glow)"/>
    <circle cx="1200.7" cy="326.9" r="8.5" fill="#3FB886"/>
    <circle cx="1200.7" cy="326.9" r="3" fill="#FFFFFF" fill-opacity=".8"/>
    <circle cx="1341.3" cy="233.6" r="34" fill="#3AA6D9" fill-opacity=".26" filter="url(#glow)"/>
    <polygon points="1356.1,242.1 1341.3,250.6 1326.6,242.1 1326.6,225.1 1341.3,216.6 1356.1,225.1" fill="#0F1216" fill-opacity=".9" stroke="#3AA6D9" stroke-width="2"/>
    <polygon points="1350,238.6 1341.3,243.6 1332.7,238.6 1332.7,228.6 1341.3,223.6 1350,228.6" fill="#3AA6D9" fill-opacity=".35" stroke="#3AA6D9" stroke-width="1"/>
    <rect x="1337.8" y="228.6" width="7" height="10" rx="1.5" fill="#FFFFFF" fill-opacity=".9"/><rect x="1339.8" y="226.6" width="3" height="2" rx=".5" fill="#FFFFFF" fill-opacity=".9"/>
    <text class="mono vtx" x="1309.3" y="239.6" text-anchor="end" fill="#3AA6D9">CORE · BATTERIES</text>
    <text class="mono vtx" x="1427.5" y="217.1" text-anchor="middle" fill="#8B7CF6">PLAN</text>
    <text class="mono vtx" x="1443.8" y="376" text-anchor="start" fill="#E0A33A">BUILD</text>
    <text class="mono vtx" x="1200.7" y="362.9" text-anchor="middle" fill="#3FB886">INSTRUMENT</text>
    <g>
      <rect x="1086" y="296" width="68" height="124" rx="12" fill="#1A2029" fill-opacity=".96" stroke="#5E6C85" stroke-opacity=".85"/>
      <rect x="1109" y="302" width="22" height="5" rx="2.5" fill="#0F1216"/>
      <rect x="1094" y="316" width="52" height="30" rx="6" fill="#E0A33A" fill-opacity=".18" stroke="#E0A33A" stroke-opacity=".7"/>
      <text class="mono pane" x="1120" y="335" text-anchor="middle" fill="#E0A33A">PWA</text>
      <rect x="1098" y="354" width="44" height="5" rx="2.5" fill="#E6E9EE" fill-opacity="0.2"/><rect x="1098" y="366" width="34" height="5" rx="2.5" fill="#E6E9EE" fill-opacity="0.2"/><rect x="1098" y="378" width="40" height="5" rx="2.5" fill="#E6E9EE" fill-opacity="0.2"/><rect x="1098" y="390" width="28" height="5" rx="2.5" fill="#E6E9EE" fill-opacity="0.2"/>
      <rect x="1095" y="390" width="50" height="12" rx="6" fill="none" stroke="#3FB886" stroke-opacity=".9"/><text class="mono chipxs" x="1120" y="399" text-anchor="middle" fill="#3FB886">DERIVED</text>
      <rect x="1106" y="411" width="28" height="3" rx="1.5" fill="#7B8694"/>
    </g>

    <!-- footer -->
    <text class="mono foot" x="64" y="490">MONGODB × CEREBRAL VALLEY · HARNESS ENGINEERING &amp; MODEL WRANGLING HACKATHON · NYC · 2026-09-26</text>
    <text class="mono foot" x="1536" y="490" text-anchor="end">MIT</text>
    <rect x=".5" y=".5" width="1599" height="519" rx="12" fill="none" stroke="#2A323D"/>
  </g>
</svg>
